<?xml version="1.0" standalone="no"?>
<!DOCTYPE svg PUBLIC "-//W3C//DTD SVG 20010904//EN"
 "http://www.w3.org/TR/2001/REC-SVG-20010904/DTD/svg10.dtd">
<svg version="1.0" xmlns="http://www.w3.org/2000/svg"
 width="704.000000pt" height="704.000000pt" viewBox="0 0 704.000000 704.000000"
 preserveAspectRatio="xMidYMid meet">
<metadata>
Created by potrace 1.11, written by Peter Selinger 2001-2013
</metadata>
<g transform="translate(0.000000,704.000000) scale(0.100000,-0.100000)"
fill="#000000" stroke="none">
<path d="M0 6326 c0 -18 2 -18 485 -61 215 -20 424 -39 465 -44 41 -6 138 -15
215 -21 77 -6 230 -20 340 -30 110 -11 254 -24 320 -30 66 -5 190 -17 275 -25
85 -8 326 -30 535 -50 209 -19 425 -39 480 -45 55 -5 156 -14 225 -20 69 -6
166 -14 215 -20 50 -5 171 -16 270 -25 99 -9 270 -25 380 -35 388 -38 446 -42
453 -35 4 4 9 101 11 216 2 154 0 213 -9 224 -18 22 -4660 23 -4660 1z"/>
<path d="M355 5735 c44 -7 154 -20 245 -29 91 -9 206 -21 255 -26 50 -6 223
-24 385 -40 162 -16 475 -48 695 -70 220 -23 443 -45 495 -50 52 -5 160 -16
240 -24 80 -8 168 -17 195 -20 60 -7 232 -24 700 -71 88 -9 241 -25 340 -35
510 -53 732 -73 748 -67 15 6 17 25 17 180 0 96 -3 195 -6 221 l-7 46 -2191
-1 c-1813 -1 -2177 -3 -2111 -14z"/>
<path d="M740 5160 l-25 -7 25 -6 c14 -3 70 -10 125 -16 55 -5 206 -21 335
-36 129 -14 395 -44 590 -65 195 -22 393 -44 440 -49 47 -6 148 -17 225 -26
336 -37 415 -46 495 -55 222 -26 640 -72 900 -100 47 -5 247 -28 444 -50 288
-33 361 -38 368 -28 9 15 11 408 2 432 -6 15 -186 16 -1953 15 -1070 -1 -1957
-4 -1971 -9z"/>
<path d="M1110 4564 c41 -7 152 -22 245 -33 173 -20 408 -49 615 -76 63 -8
230 -28 370 -45 140 -17 305 -37 365 -45 61 -8 187 -24 280 -35 94 -10 224
-26 290 -34 66 -9 233 -29 370 -46 138 -17 297 -37 355 -45 58 -7 150 -18 205
-25 55 -6 147 -18 205 -25 58 -8 137 -17 176 -21 l71 -6 6 47 c9 60 9 368 1
389 -6 15 -174 16 -1818 15 -1565 -1 -1801 -3 -1736 -15z"/>
<path d="M2490 3781 c-128 -35 -211 -82 -303 -170 -172 -164 -249 -407 -202
-631 80 -379 433 -618 807 -546 188 36 347 141 450 296 84 128 112 238 106
416 -4 115 -8 138 -36 209 -80 203 -223 340 -430 411 -89 31 -107 34 -212 33
-78 0 -136 -6 -180 -18z m261 -235 c142 -30 254 -120 318 -255 34 -72 36 -81
36 -181 -1 -100 -2 -108 -37 -180 -169 -346 -643 -347 -807 -1 -34 72 -35 81
-35 181 -1 86 4 115 22 160 57 142 177 243 326 275 79 17 98 17 177 1z"/>
<path d="M2590 3476 c-81 -19 -121 -39 -179 -92 -117 -105 -152 -281 -83 -427
116 -249 447 -293 621 -82 117 142 117 327 0 476 -79 100 -235 154 -359 125z"/>
<path d="M5700 3784 c-81 -21 -211 -88 -272 -139 -104 -90 -182 -207 -224
-340 -15 -48 -19 -89 -18 -200 0 -132 2 -145 31 -223 124 -327 449 -512 786
-448 242 47 443 225 527 466 32 92 39 260 15 365 -33 148 -130 299 -255 398
-57 45 -176 101 -255 122 -75 19 -260 19 -335 -1z m316 -254 c110 -38 201
-120 256 -230 32 -63 33 -69 33 -185 0 -114 -1 -123 -32 -188 -42 -88 -126
-172 -215 -216 -161 -80 -385 -39 -505 92 -191 207 -158 519 70 676 117 80
255 98 393 51z"/>
<path d="M5773 3470 c-109 -30 -207 -114 -246 -210 -33 -83 -31 -224 5 -302
34 -73 106 -146 183 -184 54 -26 70 -29 156 -29 88 0 100 2 162 34 202 103
269 350 147 540 -84 130 -255 194 -407 151z"/>
<path d="M6840 2214 c-27 -4 -252 -16 -705 -40 -159 -8 -360 -19 -445 -24
-161 -10 -335 -20 -820 -45 -157 -9 -341 -20 -410 -25 -69 -5 -240 -14 -380
-20 -140 -6 -316 -16 -390 -21 -74 -5 -301 -18 -505 -29 -467 -25 -874 -48
-1080 -60 -88 -5 -295 -17 -460 -25 -165 -8 -367 -20 -450 -25 -82 -6 -235
-14 -340 -20 -104 -5 -278 -15 -385 -20 -107 -6 -217 -14 -245 -18 -27 -4
1464 -9 3315 -12 1908 -3 3370 -1 3378 4 17 12 17 357 0 374 -12 12 -25 13
-78 6z"/>
</g>
</svg>
